<?xml version="1.0" encoding="utf-8"?>
<!-- Generator: Adobe Illustrator 16.0.4, SVG Export Plug-In . SVG Version: 6.00 Build 0)  -->
<!DOCTYPE svg PUBLIC "-//W3C//DTD SVG 1.1//EN" "http://www.w3.org/Graphics/SVG/1.1/DTD/svg11.dtd">
<svg version="1.1" id="Layer_1" xmlns="http://www.w3.org/2000/svg" xmlns:xlink="http://www.w3.org/1999/xlink" x="0px" y="0px"
	 width="13px" height="13px" viewBox="0 0 13 13" enable-background="new 0 0 13 13" xml:space="preserve">
<g>
	<path fill="#FFFFFF" d="M6.5,12C3.467,12,1,9.533,1,6.5S3.467,1,6.5,1S12,3.467,12,6.5S9.533,12,6.5,12z"/>
	<path fill="#A7A9AC" d="M6.5,2C8.981,2,11,4.019,11,6.5S8.981,11,6.5,11S2,8.981,2,6.5S4.019,2,6.5,2 M6.5,0C2.91,0,0,2.911,0,6.5
		S2.91,13,6.5,13S13,10.089,13,6.5S10.09,0,6.5,0L6.5,0z"/>
</g>
<g>
	<circle fill="#A7A9AC" cx="6.5" cy="6.5" r="3"/>
</g>
</svg>
